<?xml version="1.0" encoding="UTF-8"?>
<svg xmlns="http://www.w3.org/2000/svg" width="1246" height="160" viewBox="19.6 965.0 1245.7 160.0"><rect x="19.6" y="965.0" width="1245.7" height="160.0" fill="#FFFFFF" id="module_background" /><g id="branch_query" transform="matrix(0.31629 0 0 0.31661 -0.5 -18.0)"><path d="M89 3173.06C89 3159.77 99.7722 3149 113.06 3149L982.94 3149C996.228 3149 1007 3159.77 1007 3173.06L1007 3454.94C1007 3468.23 996.228 3479 982.94 3479L113.06 3479C99.7722 3479 89 3468.23 89 3454.94Z" fill="#FFFEF8" fill-rule="evenodd" fill-opacity="1" /><text fill="#111111" fill-opacity="1" font-family="Comic Sans MS,Comic Sans MS_MSFontService,Carlito,sans-serif" font-style="oblique" font-variant="normal" font-weight="400" font-stretch="normal" font-size="79" text-anchor="start" direction="ltr" writing-mode="lr-tb" unicode-bidi="normal" text-decoration="none" transform="matrix(1 0 0 1 281.425 3212)">The girl bends</text><text fill="#111111" fill-opacity="1" font-family="Comic Sans MS,Comic Sans MS_MSFontService,Carlito,sans-serif" font-style="oblique" font-variant="normal" font-weight="400" font-stretch="normal" font-size="79" text-anchor="start" direction="ltr" writing-mode="lr-tb" unicode-bidi="normal" text-decoration="none" transform="matrix(1 0 0 1 232.646 3332)">down and ties the</text><text fill="#111111" fill-opacity="1" font-family="Comic Sans MS,Comic Sans MS_MSFontService,Carlito,sans-serif" font-style="oblique" font-variant="normal" font-weight="400" font-stretch="normal" font-size="79" text-anchor="start" direction="ltr" writing-mode="lr-tb" unicode-bidi="normal" text-decoration="none" transform="matrix(1 0 0 1 278.104 3442)">ballerina shoes.</text><path d="M93.0002 3155.69C93.0002 3141.5 104.502 3130 118.689 3130L978.311 3130C992.499 3130 1004 3141.5 1004 3155.69L1004 3449.31C1004 3463.5 992.499 3475 978.311 3475L118.689 3475C104.502 3475 93.0002 3463.5 93.0002 3449.31Z" stroke="#EFB15A" stroke-width="5.5" stroke-linecap="butt" stroke-linejoin="miter" stroke-miterlimit="8" stroke-dasharray="20.625 12.375" stroke-opacity="1" fill="none" fill-rule="evenodd" /><path d="M1014 3293 1368 3293" stroke="#111111" stroke-width="7.5625" stroke-linecap="round" stroke-linejoin="miter" stroke-miterlimit="8" stroke-opacity="1" fill="none" fill-rule="evenodd" /><path d="M1345 3270 1345 3316 1368 3293Z" fill="#111111" fill-rule="evenodd" fill-opacity="1" /><rect x="1368" y="3138" width="650" height="310" fill="#D7EAD5" fill-opacity="1" /><text fill="#111111" fill-opacity="1" font-family="Arial,Arial_MSFontService,Carlito,sans-serif" font-style="normal" font-variant="normal" font-weight="700" font-stretch="normal" font-size="100" text-anchor="start" direction="ltr" writing-mode="lr-tb" unicode-bidi="normal" text-decoration="none" transform="matrix(1 0 0 1 1468.54 3338)">RoBERTa</text><rect x="1372" y="3142" width="642" height="302" stroke="#656565" stroke-width="6.1875" stroke-linecap="butt" stroke-linejoin="miter" stroke-miterlimit="8" stroke-opacity="1" fill="none" /><path d="M2021 3293 2203 3293" stroke="#277B36" stroke-width="7.5625" stroke-linecap="round" stroke-linejoin="miter" stroke-miterlimit="8" stroke-opacity="1" fill="none" fill-rule="evenodd" /><path d="M2181 3270 2181 3316 2203 3293Z" fill="#277B36" fill-rule="evenodd" fill-opacity="1" /><path d="M2207 3138 2372 3172.44 2372 3413.56 2207 3448Z" stroke="#656565" stroke-width="6.1875" stroke-linecap="butt" stroke-linejoin="round" stroke-miterlimit="10" stroke-opacity="1" fill="#D7EAD5" fill-rule="evenodd" fill-opacity="1" /><text fill="#111111" fill-opacity="1" font-family="Arial,Arial_MSFontService,Carlito,sans-serif" font-style="normal" font-variant="normal" font-weight="700" font-stretch="normal" font-size="89" text-anchor="start" direction="ltr" writing-mode="lr-tb" unicode-bidi="normal" text-decoration="none" transform="matrix(1 0 0 1 2229.81 3337)">FC</text><path d="M2375 3293 2564 3293" stroke="#277B36" stroke-width="7.5625" stroke-linecap="round" stroke-linejoin="miter" stroke-miterlimit="8" stroke-opacity="1" fill="none" fill-rule="evenodd" /><path d="M2542 3270 2542 3316 2564 3293Z" fill="#277B36" fill-rule="evenodd" fill-opacity="1" /><rect x="2568" y="3138" width="653" height="310" fill="#D7EAD5" fill-opacity="1" /><text fill="#111111" fill-opacity="1" font-family="Arial,Arial_MSFontService,Carlito,sans-serif" font-style="normal" font-variant="normal" font-weight="700" font-stretch="normal" font-size="96" text-anchor="start" direction="ltr" writing-mode="lr-tb" unicode-bidi="normal" text-decoration="none" transform="matrix(1 0 0 1 2613.54 3338)">Transformer</text><rect x="2571" y="3142" width="647" height="302" stroke="#656565" stroke-width="6.1875" stroke-linecap="butt" stroke-linejoin="miter" stroke-miterlimit="8" stroke-opacity="1" fill="none" /><path d="M3224 3293 3396 3293" stroke="#277B36" stroke-width="7.5625" stroke-linecap="round" stroke-linejoin="miter" stroke-miterlimit="8" stroke-opacity="1" fill="none" fill-rule="evenodd" /><path d="M3374 3270 3374 3316 3396 3293Z" fill="#277B36" fill-rule="evenodd" fill-opacity="1" /><rect x="3400" y="3138" width="577" height="310" fill="#D7EAD5" fill-opacity="1" /><text fill="#111111" fill-opacity="1" font-family="Arial,Arial_MSFontService,Carlito,sans-serif" font-style="normal" font-variant="normal" font-weight="700" font-stretch="normal" font-size="96" text-anchor="start" direction="ltr" writing-mode="lr-tb" unicode-bidi="normal" text-decoration="none" transform="matrix(1 0 0 1 3477.28 3338)">Attention</text><rect x="3403" y="3142" width="571" height="302" stroke="#656565" stroke-width="6.1875" stroke-linecap="butt" stroke-linejoin="miter" stroke-miterlimit="8" stroke-opacity="1" fill="none" /><text fill="#111111" fill-opacity="1" font-family="Arial,Arial_MSFontService,Carlito,sans-serif" font-style="normal" font-variant="normal" font-weight="700" font-stretch="normal" font-size="103" text-anchor="start" direction="ltr" writing-mode="lr-tb" unicode-bidi="normal" text-decoration="none" transform="matrix(1 0 0 1 959.062 3554)">Query Branch</text></g></svg>